<?xml version="1.0" encoding="UTF-8" standalone="no"?>
<svg
   xmlns:dc="http://purl.org/dc/elements/1.1/"
   xmlns:cc="http://creativecommons.org/ns#"
   xmlns:rdf="http://www.w3.org/1999/02/22-rdf-syntax-ns#"
   xmlns:svg="http://www.w3.org/2000/svg"
   xmlns="http://www.w3.org/2000/svg"
   xmlns:sodipodi="http://sodipodi.sourceforge.net/DTD/sodipodi-0.dtd"
   xmlns:inkscape="http://www.inkscape.org/namespaces/inkscape"
   width="40"
   height="40"
   viewBox="0 0 10.583333 10.583334"
   version="1.1"
   id="svg3712"
   inkscape:version="1.0.1 (3bc2e813f5, 2020-09-07)"
   sodipodi:docname="icone_whats.svg">
  <defs
     id="defs3706">
    <clipPath
       id="clip89">
      <path
         d="m 174,38 h 44 v 44 h -44 z m 0,0"
         id="path2795" />
    </clipPath>
    <clipPath
       id="clip90">
      <path
         d="m 200.38281,81.359375 c -1,-0.191406 -2.02344,-0.316406 -3.0625,-0.367187 -1.91015,-0.910157 -4.04297,-1.421875 -6.29687,-1.421875 -1.16016,0 -2.28516,0.136718 -3.36719,0.390625 -7.58984,-3.320313 -12.89063,-10.894532 -12.89063,-19.707032 0,-11.871093 9.625,-21.5 21.5,-21.5 11.875,0 21.5,9.628907 21.5,21.5 0,10.46875 -7.48046,19.1875 -17.38281,21.105469"
         id="path2798" />
    </clipPath>
  </defs>
  <sodipodi:namedview
     id="base"
     pagecolor="#ffffff"
     bordercolor="#666666"
     borderopacity="1.0"
     inkscape:pageopacity="0.0"
     inkscape:pageshadow="2"
     inkscape:zoom="8"
     inkscape:cx="24.03445"
     inkscape:cy="16.53591"
     inkscape:document-units="mm"
     inkscape:current-layer="layer1"
     inkscape:document-rotation="0"
     showgrid="false"
     units="px"
     showguides="true"
     inkscape:guide-bbox="true"
     inkscape:snap-bbox="true"
     inkscape:bbox-nodes="true"
     inkscape:snap-bbox-edge-midpoints="true"
     inkscape:snap-bbox-midpoints="true"
     inkscape:window-width="1440"
     inkscape:window-height="837"
     inkscape:window-x="-8"
     inkscape:window-y="-8"
     inkscape:window-maximized="1" />
  <metadata
     id="metadata3709">
    <rdf:RDF>
      <cc:Work
         rdf:about="">
        <dc:format>image/svg+xml</dc:format>
        <dc:type
           rdf:resource="http://purl.org/dc/dcmitype/StillImage" />
        <dc:title></dc:title>
      </cc:Work>
    </rdf:RDF>
  </metadata>
  <g
     inkscape:label="Layer 1"
     inkscape:groupmode="layer"
     id="layer1">
    <path
       style="fill:#000000;fill-opacity:1;fill-rule:nonzero;stroke:none;stroke-width:0.352777"
       d="m 10.449664,5.2909767 c 0,2.8497827 -2.3095939,5.1593763 -5.1579994,5.1593763 -2.8484053,0 -5.15799547,-2.3095936 -5.15799547,-5.1593763 0,-2.8484046 2.30959017,-5.1579965 5.15799547,-5.1579965 2.8484055,0 5.1579994,2.3095919 5.1579994,5.1579965"
       id="path3205" />
    <path
       style="fill:#ffffff;fill-opacity:1;fill-rule:nonzero;stroke:none;stroke-width:0.352777"
       d="m 4.1988825,7.1775112 0.1005946,0.060634 c 0.3734506,0.2218626 0.7978846,0.3389989 1.226453,0.3389989 1.3242963,0 2.4032989,-1.0776275 2.4032989,-2.4019224 0,-1.3256726 -1.0790026,-2.4032985 -2.4032989,-2.4032985 -1.3242923,0 -2.4032985,1.0776259 -2.4032985,2.4032985 0,0.4368385 0.1226468,0.8681643 0.3514021,1.2457465 l 0.06339,0.1019751 -0.2411587,0.895726 z M 2.5052706,8.2110398 2.9352185,6.6056254 C 2.6913079,6.1660311 2.5631508,5.6740714 2.5631508,5.1752215 c 0,-1.6343529 1.3298064,-2.9627818 2.9627793,-2.9627818 1.6343562,0 2.962783,1.3284289 2.962783,2.9627818 0,1.6329755 -1.3284268,2.9627827 -2.962783,2.9627827 -0.4905796,0 -0.9742697,-0.1240226 -1.4083522,-0.3596677 L 2.5052706,8.2110398"
       id="path3207" />
    <path
       style="fill:#ffffff;fill-opacity:1;fill-rule:evenodd;stroke:none;stroke-width:0.352777"
       d="M 6.6283608,5.587255 C 6.5070936,5.514219 6.3472428,5.4329148 6.2039267,5.490792 6.0936836,5.536267 6.0234034,5.7085219 5.9517471,5.7967165 5.9159151,5.8421915 5.8718181,5.8490825 5.8153208,5.8270345 5.4019077,5.6616699 5.084958,5.3846842 4.8562064,5.0043457 4.8176194,4.9450897 4.8244914,4.8996146 4.8713754,4.8444931 4.9402764,4.7631891 5.0270914,4.6708606 5.0450056,4.5619954 5.0643016,4.4517523 5.0119506,4.323595 4.9678356,4.2271321 4.9099596,4.1017307 4.8451925,3.9239635 4.7197906,3.8536839 4.6054131,3.7889159 4.453828,3.8261209 4.3518539,3.9088059 4.1754652,4.0521217 4.0914052,4.2767418 4.0941603,4.499984 c 0,0.06339 0.00825,0.1267796 0.022048,0.1874133 0.035828,0.1474502 0.1047327,0.285254 0.1805234,0.4161674 0.057877,0.097841 0.119888,0.1929252 0.1887926,0.2852539 0.2204861,0.3004124 0.4960938,0.5622396 0.8157986,0.7565427 0.1584711,0.097841 0.3293496,0.1832795 0.5071178,0.2425348 0.1998134,0.066146 0.3775816,0.1336699 0.592554,0.093707 0.2246208,-0.042719 0.4478619,-0.181901 0.5374358,-0.3996309 0.026175,-0.064768 0.038587,-0.136426 0.024799,-0.2039498 C 6.9315502,5.7374622 6.7413677,5.6547799 6.628366,5.5872561"
       id="path3209" />
  </g>
</svg>
