<?xml version="1.0" encoding="UTF-8" standalone="no"?>
<svg
   xmlns:dc="http://purl.org/dc/elements/1.1/"
   xmlns:cc="http://creativecommons.org/ns#"
   xmlns:rdf="http://www.w3.org/1999/02/22-rdf-syntax-ns#"
   xmlns:svg="http://www.w3.org/2000/svg"
   xmlns="http://www.w3.org/2000/svg"
   xmlns:sodipodi="http://sodipodi.sourceforge.net/DTD/sodipodi-0.dtd"
   xmlns:inkscape="http://www.inkscape.org/namespaces/inkscape"
   width="40"
   height="40"
   viewBox="0 0 10.583333 10.583334"
   version="1.1"
   id="svg3712"
   inkscape:version="1.0.1 (3bc2e813f5, 2020-09-07)"
   sodipodi:docname="icone_face.svg">
  <defs
     id="defs3706">
    <clipPath
       id="clip89">
      <path
         d="m 174,38 h 44 v 44 h -44 z m 0,0"
         id="path2795" />
    </clipPath>
    <clipPath
       id="clip90">
      <path
         d="m 200.38281,81.359375 c -1,-0.191406 -2.02344,-0.316406 -3.0625,-0.367187 -1.91015,-0.910157 -4.04297,-1.421875 -6.29687,-1.421875 -1.16016,0 -2.28516,0.136718 -3.36719,0.390625 -7.58984,-3.320313 -12.89063,-10.894532 -12.89063,-19.707032 0,-11.871093 9.625,-21.5 21.5,-21.5 11.875,0 21.5,9.628907 21.5,21.5 0,10.46875 -7.48046,19.1875 -17.38281,21.105469"
         id="path2798" />
    </clipPath>
  </defs>
  <sodipodi:namedview
     id="base"
     pagecolor="#ffffff"
     bordercolor="#666666"
     borderopacity="1.0"
     inkscape:pageopacity="0.0"
     inkscape:pageshadow="2"
     inkscape:zoom="8"
     inkscape:cx="24.03445"
     inkscape:cy="16.53591"
     inkscape:document-units="mm"
     inkscape:current-layer="layer1"
     inkscape:document-rotation="0"
     showgrid="false"
     units="px"
     showguides="true"
     inkscape:guide-bbox="true"
     inkscape:snap-bbox="true"
     inkscape:bbox-nodes="true"
     inkscape:snap-bbox-edge-midpoints="true"
     inkscape:snap-bbox-midpoints="true"
     inkscape:window-width="1440"
     inkscape:window-height="837"
     inkscape:window-x="-8"
     inkscape:window-y="-8"
     inkscape:window-maximized="1" />
  <metadata
     id="metadata3709">
    <rdf:RDF>
      <cc:Work
         rdf:about="">
        <dc:format>image/svg+xml</dc:format>
        <dc:type
           rdf:resource="http://purl.org/dc/dcmitype/StillImage" />
        <dc:title></dc:title>
      </cc:Work>
    </rdf:RDF>
  </metadata>
  <g
     inkscape:label="Layer 1"
     inkscape:groupmode="layer"
     id="layer1">
    <path
       style="fill:#000000;fill-opacity:1;fill-rule:nonzero;stroke:none;stroke-width:0.352777"
       d="m 10.481361,5.32474 c 0,-2.849783 -2.3095917,-5.15937492 -5.1579977,-5.15937492 -2.848405,0 -5.15799875,2.30959192 -5.15799875,5.15937492 0,2.5741752 1.88653575,4.707378 4.35184575,5.094608 V 6.8157775 H 3.2080729 V 5.32474 H 4.5172103 V 4.1878585 c 0,-1.2925996 0.770322,-2.0064235 1.948546,-2.0064235 0.563616,0 1.154797,0.1005967 1.154797,0.1005967 v 1.2691735 h -0.650434 c -0.640789,0 -0.840606,0.3968749 -0.840606,0.804774 V 5.32474 h 1.430405 l -0.228755,1.4910375 h -1.20165 v 3.6035705 c 2.46531,-0.38723 4.3518477,-2.5204328 4.3518477,-5.094608"
       id="path3245" />
    <path
       style="fill:#ffffff;fill-opacity:1;fill-rule:nonzero;stroke:none;stroke-width:0.352777"
       d="M 7.3311633,6.8157775 7.5599183,5.32474 H 6.1295133 V 4.3559792 c 0,-0.4078991 0.199817,-0.804774 0.840606,-0.804774 h 0.650434 V 2.2820317 c 0,0 -0.591181,-0.1005967 -1.154797,-0.1005967 -1.178224,0 -1.948546,0.7138239 -1.948546,2.0064235 V 5.32474 H 3.2080729 v 1.4910375 h 1.3091374 v 3.6035705 c 0.263204,0.04134 0.531922,0.06339 0.806153,0.06339 0.274229,0 0.542946,-0.02205 0.80615,-0.06339 V 6.8157775 h 1.20165"
       id="path3247" />
  </g>
</svg>
