<?xml version="1.0" encoding="UTF-8" standalone="no"?>
<svg
   xmlns:dc="http://purl.org/dc/elements/1.1/"
   xmlns:cc="http://creativecommons.org/ns#"
   xmlns:rdf="http://www.w3.org/1999/02/22-rdf-syntax-ns#"
   xmlns:svg="http://www.w3.org/2000/svg"
   xmlns="http://www.w3.org/2000/svg"
   xmlns:sodipodi="http://sodipodi.sourceforge.net/DTD/sodipodi-0.dtd"
   xmlns:inkscape="http://www.inkscape.org/namespaces/inkscape"
   width="40"
   height="40"
   viewBox="0 0 10.583333 10.583334"
   version="1.1"
   id="svg3712"
   inkscape:version="1.0.1 (3bc2e813f5, 2020-09-07)"
   sodipodi:docname="icone_insta.svg">
  <defs
     id="defs3706">
    <clipPath
       id="clip89">
      <path
         d="m 174,38 h 44 v 44 h -44 z m 0,0"
         id="path2795" />
    </clipPath>
    <clipPath
       id="clip90">
      <path
         d="m 200.38281,81.359375 c -1,-0.191406 -2.02344,-0.316406 -3.0625,-0.367187 -1.91015,-0.910157 -4.04297,-1.421875 -6.29687,-1.421875 -1.16016,0 -2.28516,0.136718 -3.36719,0.390625 -7.58984,-3.320313 -12.89063,-10.894532 -12.89063,-19.707032 0,-11.871093 9.625,-21.5 21.5,-21.5 11.875,0 21.5,9.628907 21.5,21.5 0,10.46875 -7.48046,19.1875 -17.38281,21.105469"
         id="path2798" />
    </clipPath>
  </defs>
  <sodipodi:namedview
     id="base"
     pagecolor="#ffffff"
     bordercolor="#666666"
     borderopacity="1.0"
     inkscape:pageopacity="0.0"
     inkscape:pageshadow="2"
     inkscape:zoom="8"
     inkscape:cx="24.03445"
     inkscape:cy="16.53591"
     inkscape:document-units="mm"
     inkscape:current-layer="layer1"
     inkscape:document-rotation="0"
     showgrid="false"
     units="px"
     showguides="true"
     inkscape:guide-bbox="true"
     inkscape:snap-bbox="true"
     inkscape:bbox-nodes="true"
     inkscape:snap-bbox-edge-midpoints="true"
     inkscape:snap-bbox-midpoints="true"
     inkscape:window-width="1440"
     inkscape:window-height="837"
     inkscape:window-x="-8"
     inkscape:window-y="-8"
     inkscape:window-maximized="1" />
  <metadata
     id="metadata3709">
    <rdf:RDF>
      <cc:Work
         rdf:about="">
        <dc:format>image/svg+xml</dc:format>
        <dc:type
           rdf:resource="http://purl.org/dc/dcmitype/StillImage" />
        <dc:title></dc:title>
      </cc:Work>
    </rdf:RDF>
  </metadata>
  <g
     inkscape:label="Layer 1"
     inkscape:groupmode="layer"
     id="layer1">
    <path
       style="fill:#000000;fill-opacity:1;fill-rule:nonzero;stroke:none;stroke-width:0.352777"
       d="m 10.482737,5.3247396 c 0,2.8484045 -2.3095905,5.1579974 -5.1579957,5.1579974 -2.8484055,0 -5.15799923,-2.3095929 -5.15799923,-5.1579974 0,-2.849783 2.30959373,-5.15799704 5.15799923,-5.15799704 2.8484052,0 5.1579957,2.30821404 5.1579957,5.15799704"
       id="path3177" />
    <path
       style="fill:#ffffff;fill-opacity:1;fill-rule:nonzero;stroke:none;stroke-width:0.352777"
       d="m 6.9260205,3.3734376 c -0.1956821,0 -0.354157,0.158474 -0.354157,0.3541556 0,0.1956813 0.1584749,0.3541556 0.354157,0.3541556 0.1956824,0 0.3541572,-0.1584743 0.3541572,-0.3541556 0,-0.1956816 -0.1584748,-0.3541556 -0.3541572,-0.3541556"
       id="path3221" />
    <path
       style="fill:#ffffff;fill-opacity:1;fill-rule:nonzero;stroke:none;stroke-width:0.352777"
       d="m 5.3495449,6.2714514 c -0.5264113,0 -0.9536041,-0.4285695 -0.9536041,-0.9549802 0,-0.5250326 0.4271928,-0.9536026 0.9536041,-0.9536026 0.5264116,0 0.9549799,0.42857 0.9549799,0.9536026 0,0.5264107 -0.4285683,0.9549802 -0.9549799,0.9549802 z m 0,-2.4432615 c -0.8213124,0 -1.4882813,0.6669704 -1.4882813,1.4882813 0,0.8213105 0.6669689,1.4896592 1.4882813,1.4896592 0.821309,0 1.4896605,-0.6683487 1.4896605,-1.4896592 0,-0.8213109 -0.6683515,-1.4882813 -1.4896605,-1.4882813"
       id="path3223" />
    <path
       style="fill:#ffffff;fill-opacity:1;fill-rule:nonzero;stroke:none;stroke-width:0.352777"
       d="m 4.117578,2.8621853 c -0.6876415,0 -1.2471223,0.5594832 -1.2471223,1.2471244 v 2.4143229 c 0,0.6890189 0.5594808,1.2485026 1.2471223,1.2485026 h 2.4143229 c 0.6876415,0 1.2485015,-0.5594837 1.2485015,-1.2485026 V 4.1093097 c 0,-0.6876412 -0.56086,-1.2471244 -1.2485015,-1.2471244 z M 6.5319009,8.3412651 H 4.117578 c -1.0018324,0 -1.8162552,-0.8157988 -1.8162552,-1.8176325 V 4.1093097 c 0,-1.0018339 0.8144228,-1.8162541 1.8162552,-1.8162541 h 2.4143229 c 1.0018358,0 1.816255,0.8144202 1.816255,1.8162541 v 2.4143229 c 0,1.0018337 -0.8144192,1.8176325 -1.816255,1.8176325"
       id="path3225" />
  </g>
</svg>
